<?xml version="1.0" encoding="UTF-8" standalone="no"?>
<svg
   xmlns:dc="http://purl.org/dc/elements/1.1/"
   xmlns:cc="http://creativecommons.org/ns#"
   xmlns:rdf="http://www.w3.org/1999/02/22-rdf-syntax-ns#"
   xmlns:svg="http://www.w3.org/2000/svg"
   xmlns="http://www.w3.org/2000/svg"
   xmlns:sodipodi="http://sodipodi.sourceforge.net/DTD/sodipodi-0.dtd"
   xmlns:inkscape="http://www.inkscape.org/namespaces/inkscape"
   width="24.036995mm"
   height="24.913462mm"
   viewBox="0 0 24.036995 24.913461"
   version="1.1"
   id="svg2052"
   inkscape:version="1.0 (4035a4fb49, 2020-05-01)"
   sodipodi:docname="logo.svg">
  <defs
     id="defs2046">
    <clipPath
       id="clipPath5621"
       clipPathUnits="userSpaceOnUse">
      <rect
         style="fill:#8256e1;fill-opacity:1;stroke:none;stroke-width:0.0645666;stroke-linecap:round;stroke-linejoin:round;stroke-opacity:1"
         id="rect5623"
         width="45.789562"
         height="47.459198"
         x="213.54411"
         y="180.37753"
         ry="2.2864995" />
    </clipPath>
  </defs>
  <sodipodi:namedview
     id="base"
     pagecolor="#ffffff"
     bordercolor="#666666"
     borderopacity="1.0"
     inkscape:pageopacity="0.0"
     inkscape:pageshadow="2"
     inkscape:zoom="2.8"
     inkscape:cx="60.220133"
     inkscape:cy="33.99265"
     inkscape:document-units="mm"
     inkscape:current-layer="g5654"
     inkscape:document-rotation="0"
     showgrid="false"
     fit-margin-top="0"
     fit-margin-left="0"
     fit-margin-right="0"
     fit-margin-bottom="0"
     inkscape:window-width="1366"
     inkscape:window-height="705"
     inkscape:window-x="-8"
     inkscape:window-y="-8"
     inkscape:window-maximized="1" />
  <metadata
     id="metadata2049">
    <rdf:RDF>
      <cc:Work
         rdf:about="">
        <dc:format>image/svg+xml</dc:format>
        <dc:type
           rdf:resource="http://purl.org/dc/dcmitype/StillImage" />
        <dc:title />
      </cc:Work>
    </rdf:RDF>
  </metadata>
  <g
     inkscape:label="Layer 1"
     inkscape:groupmode="layer"
     id="layer1"
     transform="translate(-132.36841,-85.061127)">
    <g
       id="g5654"
       transform="translate(-15.574645,58.776869)">
      <rect
         inkscape:export-ydpi="999.59503"
         inkscape:export-xdpi="999.59503"
         style="fill:#0d6efd;fill-opacity:1;stroke:none;stroke-width:0.0338938;stroke-linecap:round;stroke-linejoin:round;stroke-opacity:1"
         id="rect5561"
         width="24.036993"
         height="24.913462"
         x="147.94305"
         y="26.284258"
         ry="1.200286" />
      <rect
         inkscape:export-ydpi="999.59503"
         inkscape:export-xdpi="999.59503"
         clip-path="url(#clipPath5621)"
         ry="53.375065"
         y="103.4474"
         x="203.36134"
         height="110.64259"
         width="106.75013"
         id="rect5563"
         style="fill:#013d94;fill-opacity:1;stroke:none;stroke-width:0.150525;stroke-linecap:round;stroke-linejoin:round;stroke-opacity:1"
         transform="matrix(0.52494481,0,0,0.52494481,35.844182,-68.403991)" />
      <g
         inkscape:export-ydpi="999"
         inkscape:export-xdpi="999"
         id="g16">
        <rect
           ry="1.6306496"
           y="29.097342"
           x="150.1432"
           height="19.287294"
           width="19.636702"
           id="rect895"
           style="fill:none;fill-opacity:1;stroke:#ffffff;stroke-width:0.522929;stroke-linecap:round;stroke-linejoin:round" />
        <path
           transform="matrix(0.26458333,0,0,0.26458333,147.94306,26.284258)"
           d="m 48.691406,23.550781 c -3.159554,0.0028 -6.316979,0.583581 -9.333984,1.748047 -12.517455,4.831355 -19.36874,18.273288 -15.914063,31.222656 2.426495,9.095456 9.708837,16.280397 18.859375,18.607422 L 43.759766,75.5 v 3.382812 c 0,3.225147 0.0117,3.397353 0.267578,3.722657 0.336189,0.427351 1.028626,0.467479 1.414062,0.08203 0.244158,-0.245356 0.259766,-0.432247 0.259766,-3.560547 v -3.300781 h 0.566406 c 0.311433,0 0.748089,0.03559 0.970703,0.08008 l 0.404297,0.08203 v 5.470703 c 0,1.115568 0.01192,1.35647 0.01563,2.070313 h 1.925781 v -2.126953 c 0,-5.100631 0.01453,-5.446238 0.226563,-5.447266 0.124611,-6.05e-4 0.532455,-0.03908 0.90625,-0.08398 l 0.679687,-0.08203 v 3.238282 c 0,3.078523 0.01246,3.253728 0.267578,3.578125 0.336189,0.427351 1.03058,0.467482 1.416016,0.08203 0.247937,-0.245858 0.257813,-0.432216 0.257813,-3.6875 v -3.427734 l 0.357421,-0.08008 c 4.323704,-0.959819 7.573444,-2.428324 11.00586,-4.972657 l 0.423828,-0.314453 1.679688,1.675781 c 0.923565,0.921547 1.679687,1.730242 1.679687,1.796875 0,0.0666 -0.09774,0.228075 -0.216797,0.359375 -0.12548,0.138539 -0.241375,0.543707 -0.27539,0.962891 l -0.06055,0.720703 6.78125,6.796875 c 0.387094,0.388029 0.644133,0.638717 1.017578,1.011719 h 0.638672 c 0.630433,0 1.238612,-0.09717 1.810547,-0.271485 l -2.511719,-2.511718 2.035156,-2.03711 2.037109,-2.035156 1.716797,1.701172 c 0.317912,0.314794 0.551482,0.521004 0.814453,0.763672 0.167247,-0.561263 0.261719,-1.156404 0.261719,-1.773438 V 76.673828 C 81.936337,76.072054 81.226092,75.359915 80.238281,74.375 c -5.780031,-5.763039 -5.418005,-5.45199 -6.27539,-5.380859 -0.387893,0.03216 -0.790852,0.151245 -0.925782,0.273437 -0.131149,0.118828 -0.292477,0.214844 -0.359375,0.214844 -0.06663,0 -0.875312,-0.754135 -1.796875,-1.677734 L 69.205078,66.125 l 0.31836,-0.423828 c 0.794305,-1.056926 1.980603,-2.950847 2.5625,-4.09375 0.856327,-1.681958 1.277285,-2.754971 1.835937,-4.679688 l 0.46875,-1.61914 3.640625,-0.03516 3.640625,-0.0332 0.265625,-0.339843 c 0.347792,-0.441982 0.337188,-0.725412 -0.04492,-1.169922 l -0.3125,-0.363281 -3.457031,-0.03906 -3.457031,-0.03906 0.08008,-0.398437 c 0.04157,-0.219126 0.08008,-0.62257 0.08008,-0.898437 V 51.49024 h 5.613281 c 1.169465,0 1.356806,-0.01264 2.09375,-0.01563 V 49.5625 c -0.711357,-0.0025 -0.8657,-0.01367 -1.960937,-0.01367 h -5.595704 l -0.04883,-0.875 c -0.02563,-0.480571 -0.02841,-0.917336 -0.002,-0.970703 0.02513,-0.0534 1.552806,-0.0957 3.394531,-0.0957 h 3.347657 l 0.267578,-0.341797 c 0.337852,-0.429785 0.338709,-0.700693 0.002,-1.128906 l -0.265625,-0.337891 -3.503906,-0.03516 -3.503907,-0.0332 -0.296874,-1.4375 c -0.621922,-3.01875 -2.080824,-6.487469 -3.826172,-9.097657 -1.053657,-1.575798 -1.539764,-2.085937 -1.982422,-2.085937 -0.43166,0 -0.980469,0.527967 -0.980469,0.943359 0,0.172377 0.342647,0.784352 0.773437,1.38086 2.888769,4.000248 4.425315,8.436062 4.621094,13.33789 0.305613,7.646861 -2.98772,14.930456 -8.951172,19.800782 -6.292879,5.139352 -14.879195,6.7585 -22.656254,4.27148 C 32.66737,70.062256 26.37525,62.753685 24.765625,53.560547 c -0.297827,-1.700308 -0.297827,-5.936411 0,-7.636719 1.224038,-6.990807 4.958722,-12.699255 10.837891,-16.564453 8.675981,-5.703957 20.652275,-5.011809 28.558593,1.650391 1.236473,1.041955 1.402422,1.125101 1.878907,0.927734 0.432113,-0.178998 0.630859,-0.477377 0.630859,-0.945312 0,-0.690516 -3.403603,-3.27186 -6.068359,-4.603516 -3.782318,-1.890117 -7.849825,-2.841554 -11.91211,-2.837891 z m -0.0918,3.888672 c -7.226796,0.04798 -14.092549,3.595194 -18.322265,9.869141 -5.058785,7.503311 -5.129924,17.326786 -0.179688,24.730468 1.343547,2.009398 2.104296,2.826172 2.63086,2.826172 0.547426,0 0.933593,-0.364141 0.933593,-0.880859 0,-0.303477 -0.186176,-0.642631 -0.71875,-1.306641 C 30.058937,59.081741 28.569082,55.164388 28.392578,50.712891 28.033636,41.641469 33.683161,33.346433 42.191406,30.453125 52.8626,26.824268 64.48785,32.58705 68.070312,43.28125 72.124385,55.383199 64.071703,68.279769 51.425781,69.9375 46.43998,70.591079 41.731836,69.463331 37.166016,66.517578 c -0.671244,-0.433115 -1.270047,-0.789062 -1.332032,-0.789062 -0.320693,0 -0.88226,0.432706 -0.958984,0.738281 -0.135458,0.539656 0.180128,0.942763 1.376953,1.753906 2.861216,1.939155 6.597536,3.293528 10.226563,3.707031 2.957631,0.337006 6.389988,-0.03794 9.353515,-1.021484 1.65823,-0.550345 4.324332,-1.906177 5.791016,-2.945312 1.577726,-1.117811 4.220095,-3.760173 5.337891,-5.337891 1.635514,-2.308418 3.036747,-5.505173 3.589843,-8.1875 0.672681,-3.262008 0.672681,-6.124699 0,-9.386719 -0.557215,-2.702245 -1.938001,-5.851734 -3.589843,-8.185547 -1.1167,-1.577726 -3.760165,-4.221203 -5.337891,-5.33789 -1.474091,-1.04335 -4.153996,-2.411563 -5.759766,-2.939453 -2.405027,-0.790646 -4.85474,-1.162479 -7.263672,-1.146485 z m -3.529297,5.021485 -0.394531,0.396484 -0.394531,0.394531 -0.03516,2.03125 -0.0332,2.033203 -3.455079,0.0332 -3.455078,0.03516 -0.394531,0.394531 -0.394531,0.394531 -0.0332,5.525391 -0.03516,5.52539 -0.933593,0.06445 c -0.733531,0.05087 -0.975458,0.120729 -1.128907,0.324219 -0.275149,0.364441 -0.249374,0.872442 0.06055,1.205078 l 0.261719,0.283203 H 49.0625 63.421875 l 0.263672,-0.283203 c 0.309921,-0.332609 0.335696,-0.840618 0.06055,-1.205078 -0.153562,-0.20349 -0.395376,-0.273346 -1.128906,-0.324219 l -0.933594,-0.06445 -0.0332,-3.066406 -0.03516,-3.066406 -0.392578,-0.394531 -0.394531,-0.394532 -3.455078,-0.0332 -3.455078,-0.03516 -0.0332,-4.490234 -0.03516,-4.490235 -0.396484,-0.396484 -0.396484,-0.396484 h -3.992188 z m 1.083985,1.876953 h 2.912109 2.91211 v 7.443359 l 0.002,7.443359 -2.884766,0.03516 c -2.236309,0.02706 -2.896934,-0.0015 -2.945312,-0.128907 -0.0378,-0.09036 -0.04442,-3.455953 -0.0293,-7.478515 z m -7.767578,4.919921 h 2.914062 2.91211 v 4.982422 4.984375 l -2.882813,0.03516 c -2.240428,0.0271 -2.898132,-0.0028 -2.947266,-0.13086 -0.0378,-0.09061 -0.04441,-2.347988 -0.0293,-5.017578 z m 15.535156,4.917969 h 2.912109 2.91211 v 2.525391 l 0.002,2.523437 -2.882813,0.03516 c -2.273045,0.02748 -2.896242,-0.002 -2.947265,-0.134766 -0.0378,-0.09266 -0.05015,-1.24376 -0.03125,-2.558594 z m -1.539063,9.316407 c -0.356578,0.0081 -0.695625,0.217931 -0.853515,0.5625 -0.08761,0.190971 -0.73108,1.890652 -1.429688,3.777343 -0.698607,1.886687 -1.312321,3.541419 -1.365234,3.675781 -0.06939,0.175552 -0.383896,-0.57237 -1.115234,-2.654296 -1.059402,-3.015999 -1.250541,-3.351563 -1.91211,-3.351563 -0.476825,0 -0.692338,0.26841 -1.755859,2.181641 l -0.910156,1.638672 -2.457032,0.06445 c -1.350803,0.03617 -2.552,0.113972 -2.669922,0.171875 -0.117921,0.0579 -0.283659,0.269556 -0.367187,0.470703 -0.122457,0.295646 -0.112558,0.439991 0.04883,0.751953 0.109795,0.212258 0.292928,0.422576 0.408203,0.466797 0.35675,0.13697 5.751878,0.09144 6.017578,-0.05078 0.135156,-0.07235 0.5218,-0.625504 0.857422,-1.228516 0.335925,-0.603001 0.639939,-1.066336 0.677735,-1.029297 0.03693,0.03691 0.565059,1.476612 1.173828,3.199219 0.931615,2.636137 1.157183,3.157221 1.429687,3.296875 0.389103,0.199423 0.900315,0.109466 1.166016,-0.207031 0.106772,-0.127174 0.828662,-1.959805 1.605469,-4.072266 0.776806,-2.112457 1.446328,-3.84038 1.488281,-3.839844 0.04195,4.8e-4 0.391013,0.818712 0.77539,1.81836 0.428863,1.115353 0.804341,1.89047 0.96875,2.005859 0.215471,0.150992 0.84432,0.1875 3.191407,0.1875 2.763817,0 2.93944,-0.01422 3.207031,-0.263672 0.410646,-0.382654 0.383977,-1.063573 -0.05664,-1.410156 -0.317102,-0.249411 -0.511411,-0.26811 -2.751953,-0.269531 l -2.408203,-0.002 -0.833984,-2.166015 C 53.249016,53.929868 53.141821,53.708051 52.738281,53.55464 52.621144,53.5101 52.501672,53.48945 52.382812,53.49214 Z m 15.583985,14.115234 1.683594,1.685547 1.685547,1.683593 -0.685547,0.675782 -0.683594,0.675781 -1.677735,-1.681641 -1.679687,-1.68164 0.679687,-0.677735 z m 6.082031,3.365234 0.808594,0.808594 0.808594,0.808594 -2.003907,2.005859 c -1.101883,1.103615 -2.035667,2.007813 -2.074218,2.007813 -0.0387,0 -0.416159,-0.351145 -0.839844,-0.779297 l -0.771485,-0.779297 2.03711,-2.035156 z m 2.976563,2.978516 0.679687,0.677734 0.677734,0.679688 -2.001953,2.005859 c -1.101807,1.103539 -2.037242,2.005859 -2.076171,2.005859 -0.03916,0 -0.359064,-0.291272 -0.710938,-0.648437 l -0.638672,-0.650391 2.035156,-2.035156 z"
           style="fill:#ffffff;stroke-width:0.129447"
           id="path874" />
      </g>
    </g>
  </g>
</svg>
